<?xml version="1.0" encoding="UTF-8" standalone="no"?>
<svg
   version="1.1"
   width="256"
   height="256"
   id="svg3"
   sodipodi:docname="IgniteViewSmall.svg"
   inkscape:version="1.3.2 (091e20e, 2023-11-25, custom)"
   xmlns:inkscape="http://www.inkscape.org/namespaces/inkscape"
   xmlns:sodipodi="http://sodipodi.sourceforge.net/DTD/sodipodi-0.dtd"
   xmlns="http://www.w3.org/2000/svg"
   xmlns:svg="http://www.w3.org/2000/svg">
  <defs
     id="defs3" />
  <sodipodi:namedview
     id="namedview3"
     pagecolor="#ffffff"
     bordercolor="#000000"
     borderopacity="0.25"
     inkscape:showpageshadow="2"
     inkscape:pageopacity="0.0"
     inkscape:pagecheckerboard="0"
     inkscape:deskcolor="#d1d1d1"
     inkscape:zoom="2.2456165"
     inkscape:cx="3.7851522"
     inkscape:cy="108.87879"
     inkscape:window-width="1920"
     inkscape:window-height="1009"
     inkscape:window-x="-8"
     inkscape:window-y="-8"
     inkscape:window-maximized="1"
     inkscape:current-layer="svg3" />
  <path
     d="M0 0 C-0.18175781 0.94746094 -0.18175781 0.94746094 -0.3671875 1.9140625 C-4.15812822 22.15185372 -6.93068889 40.70139741 5 59 C13.58612934 69.79963066 24.17345981 79.16330998 34.875 87.8125 C51.40978288 101.1886847 62.54129919 118.55729201 65 140 C66.31637224 162.27706868 59.9559842 181.1179758 45.4296875 197.984375 C32.25021898 211.89390154 13.47922278 221.30868199 -5.86328125 222.12011719 C-12.57764552 222.24763158 -19.2870554 222.16916829 -26 222 C-25.72285156 221.3090625 -25.44570312 220.618125 -25.16015625 219.90625 C-23.90992598 216.77436002 -22.66647362 213.64030274 -21.4375 210.5 C-21.00308594 209.3965625 -20.56867188 208.293125 -20.12109375 207.15625 C-17.95740306 201.06474451 -17.8754336 195.58988764 -17.9375 189.1875 C-17.94201172 188.30384766 -17.94652344 187.42019531 -17.95117188 186.50976562 C-17.96290134 184.33981441 -17.98083505 182.16989828 -18 180 C-17.01 179.67 -16.02 179.34 -15 179 C-14.22328689 177.30186182 -14.22328689 177.30186182 -13.75 175.1875 C-10.06296583 163.27115759 -3.78661971 155.22674193 7.1015625 149.31640625 C10.04532319 147.8230386 13.0099132 146.39768168 16 145 C17.3355408 144.33776667 18.66984116 143.67297822 20 143 C20 141.35 20 139.7 20 138 C18.9378125 137.50371094 17.875625 137.00742188 16.78125 136.49609375 C1.73942273 129.3218889 1.73942273 129.3218889 -4 123 C-4.65871094 122.27683594 -5.31742188 121.55367188 -5.99609375 120.80859375 C-8.90292014 116.73450375 -10.440308 112.23323337 -12.09179688 107.53125 C-12.91059564 105.46028357 -13.63050916 103.75889513 -15 102 C-18.61434265 100.87966441 -18.61434265 100.87966441 -22 101 C-22.15855469 101.53367187 -22.31710938 102.06734375 -22.48046875 102.6171875 C-26.4649847 115.34122186 -31.98469643 125.44092124 -44 132 C-46.95601607 133.19403372 -49.92276807 134.17067508 -53 135 C-57.37001432 122.66723231 -61.24123049 110.15200483 -62 97 C-62.05285156 96.15953125 -62.10570313 95.3190625 -62.16015625 94.453125 C-63.0228587 67.29675221 -52.35170896 43.40028956 -34.62890625 23.3125 C-27.42554699 15.74246728 -11.06500099 0 0 0 Z "
     fill="#4933C7"
     transform="translate(148,12)"
     id="path1" />
  <path
     d="M0 0 C1.27886804 3.83660412 0.4933938 5.82783414 -0.4375 9.75 C-3.77408069 25.16432724 -2.87633184 40.65438254 5.27734375 54.4375 C12.9591107 65.86434608 23.01100117 72.37170401 35.29101562 78.07250977 C46.63345877 83.44502456 52.64975365 92.67129136 57.078125 104.22265625 C57.99902946 106.34833514 57.99902946 106.34833514 61 108 C65.20764969 121.84610303 60.58252346 135.55365946 54.20703125 147.76171875 C53.80871094 148.50035156 53.41039063 149.23898438 53 150 C32.92109016 149.58870017 14.64708305 140.32198345 0 127 C-0.70511719 126.38769531 -1.41023438 125.77539062 -2.13671875 125.14453125 C-16.84637721 111.5908381 -25.34276922 90.4943639 -26.24609375 70.76953125 C-26.82118074 47.94657237 -21.65824932 23.61870261 -6.125 6.1875 C-4.76701829 4.77510439 -3.39555245 3.37528509 -2 2 C-1.34 1.34 -0.68 0.68 0 0 Z "
     fill="#7880F9"
     transform="translate(69,84)"
     id="path2" />
  <path
     d="M 0,0 C 2.5976563,1.0117187 2.5976563,1.0117187 4.4765625,4.1796875 5.0567821,5.5114043 5.6173629,6.851814 6.1601562,8.1992188 11.487853,20.869494 18.270145,27.822212 30.765625,33.652344 c 2.742381,1.316342 5.318216,2.644384 7.832031,4.359375 0.625,2.5 0.625,2.5 0,5 -4.813245,3.304082 -10.270602,5.580548 -15.527344,8.085937 -6.355906,3.503256 -10.258962,7.42821 -13.6601557,13.789063 l -0.9980469,1.777343 c -1.6665111,3.014961 -3.1150593,6.024409 -4.3964844,9.222657 -1.4179687,3.125 -1.4179687,3.125 -3.91796875,4.25 -2.50000005,-0.125 -2.50000005,-0.125 -4.01953125,-1.285157 C -5.7926256,76.526698 -6.5767867,74.254326 -7.5898437,71.449219 -13.029553,58.224824 -21.014096,52.561953 -33.430176,46.705567 c -5.757303,-2.757304 -2.096406,-1.050581 -7.873767,-5.185853 -0.1875,-2.375 -0.285901,-1.882995 0.901599,-4.507995 2.837908,-1.707881 5.925735,-2.786837 9,-4 1.76034,-0.811264 3.510647,-1.644666 5.25,-2.5 l 2.390625,-1.15625 C -13.790882,23.676714 -9.3522852,13.721802 -5.4453125,3.3476563 -4.0774459,0.28404487 -3.311208,0.01615223 0,0 Z"
     fill="#fcfcfe"
     transform="translate(130.40234,111.98828)"
     id="path3"
     sodipodi:nodetypes="ccccccccccccccccccccc" />
</svg>
